<?xml version="1.0" encoding="utf-8"?>
<svg version="1.0" width="202.000000pt" height="210.000000pt" viewBox="0 0 202.000000 210.000000" preserveAspectRatio="xMidYMid meet" xmlns="http://www.w3.org/2000/svg">
  <g transform="matrix(0.1, 0, 0, -0.1, -7.118644, 209.525421)" fill="#000000" stroke="none">
    <path d="M1488 1944 c-3 -3 -48 -11 -100 -18 -78 -11 -96 -11 -113 0 -11 8 -39 14 -62 14 l-43 0 0 -55 0 -55 47 0 c27 0 53 6 63 15 20 18 175 49 207 40 21 -5 23 -2 23 30 0 32 -8 43 -22 29z" style="fill: rgb(255, 203, 116);"/>
    <path d="M389 1885 c-48 -26 -49 -39 -56 -514 -6 -417 -5 -450 12 -478 25 -43 45 -52 135 -59 l81 -7 -2 -137 c-1 -149 12 -202 60 -244 18 -16 21 -30 21 -87 0 -43 -6 -81 -17 -104 -16 -34 -16 -35 7 -60 57 -61 242 -93 434 -76 125 12 170 24 204 54 25 24 29 69 7 87 -11 9 -15 32 -15 81 0 63 2 69 29 88 55 39 71 92 71 232 0 176 -3 169 87 169 85 0 132 17 159 58 16 24 18 66 22 399 5 404 3 422 -48 448 -21 11 -132 15 -547 21 l-519 7 -21 -26 c-20 -25 -21 -44 -28 -364 -8 -377 -9 -374 58 -406 31 -14 37 -22 37 -47 0 -30 0 -30 -59 -30 -44 0 -65 5 -85 21 l-26 20 1 312 c1 172 4 366 8 432 l6 119 34 23 c34 23 37 23 359 23 291 0 324 2 318 16 -3 9 -6 22 -6 30 0 21 -682 20 -721 -1z m1168 -207 c14 -11 15 -53 11 -378 -3 -201 -9 -373 -13 -382 -10 -24 -21 -26 -114 -20 l-84 5 6 139 c5 106 4 140 -6 142 -6 3 -48 8 -92 13 l-80 8 4 131 c4 167 -3 190 -71 228 -28 16 -69 45 -90 64 l-38 34 -38 -34 c-21 -19 -58 -44 -83 -56 -26 -13 -51 -33 -57 -48 -7 -14 -12 -73 -12 -132 0 -59 -3 -123 -6 -143 l-6 -37 -72 -6 c-39 -4 -90 -9 -113 -12 l-43 -6 0 -84 c0 -82 -5 -95 -26 -74 -11 11 -8 627 2 659 7 20 996 10 1021 -11z m-363 -518 c65 -5 120 -11 123 -13 2 -3 4 -142 4 -311 -1 -323 -2 -337 -48 -379 -19 -17 -24 -17 -104 3 -145 34 -331 36 -485 4 -30 -6 -33 -3 -64 51 l-32 56 3 284 c3 195 8 288 15 295 27 27 295 31 588 10z m-67 -721 c99 -18 103 -22 103 -78 0 -27 -4 -52 -9 -55 -5 -3 -28 1 -52 10 -70 26 -245 29 -371 7 -71 -13 -109 -15 -111 -8 -2 5 -4 32 -3 59 1 48 2 50 36 59 104 27 279 29 407 6z m28 -152 c94 -26 120 -60 71 -92 -104 -68 -480 -64 -556 7 -41 38 18 78 145 98 78 12 276 4 340 -13z" style="fill: rgb(255, 203, 116);"/>
    <path d="M715 1111 c-11 -5 -32 -21 -47 -36 -50 -49 -48 -123 3 -175 106 -106 277 30 199 158 -31 50 -102 74 -155 53z" style="fill: rgb(255, 203, 116);"/>
    <path d="M1093 1104 c-37 -19 -57 -46 -68 -92 -14 -67 55 -152 126 -152 38 0 89 29 109 62 68 112 -50 240 -167 182z" style="fill: rgb(255, 203, 116);"/>
    <path d="M685 758 c-19 -51 -45 -133 -45 -140 0 -16 19 -8 25 12 9 27 49 26 68 -2 27 -41 27 -13 1 65 -25 73 -39 92 -49 65z m28 -59 c3 -12 0 -22 -9 -26 -20 -8 -27 2 -19 26 8 27 21 27 28 0z" style="fill: rgb(255, 203, 116);"/>
    <path d="M780 690 l0 -80 50 0 c58 0 68 17 13 22 -31 2 -39 7 -41 26 -3 19 1 22 33 22 46 0 43 24 -3 28 -53 5 -36 42 19 42 10 0 19 5 19 10 0 6 -20 10 -45 10 l-45 0 0 -80z" style="fill: rgb(255, 203, 116);"/>
    <path d="M910 690 l0 -80 45 0 c52 0 61 17 13 22 -25 2 -34 8 -36 26 -3 19 1 22 28 22 39 0 36 24 -4 28 -40 5 -31 36 12 40 48 5 39 22 -13 22 l-45 0 0 -80z" style="fill: rgb(255, 203, 116);"/>
    <path d="M1030 691 c0 -47 4 -81 10 -81 6 0 10 21 11 48 0 49 10 40 23 -20 4 -16 11 -28 16 -28 5 0 12 12 16 28 13 60 23 69 23 20 1 -27 6 -48 11 -48 6 0 10 34 10 81 0 71 -2 80 -17 77 -11 -2 -20 -18 -26 -46 -4 -23 -12 -42 -17 -42 -5 0 -13 19 -17 42 -6 28 -15 44 -26 46 -15 3 -17 -6 -17 -77z" style="fill: rgb(255, 203, 116);"/>
    <path d="M1188 745 c-9 -21 -8 -28 7 -45 10 -11 24 -20 30 -20 7 0 18 -7 26 -16 10 -13 10 -17 -2 -25 -20 -12 -25 -11 -44 7 -20 20 -33 10 -19 -14 6 -9 25 -18 42 -20 26 -3 34 2 43 22 16 34 6 54 -36 72 -19 8 -35 19 -35 24 0 16 30 24 43 11 15 -15 27 -14 27 3 0 34 -67 35 -82 1z" style="fill: rgb(255, 203, 116);"/>
    <path d="M858 273 c6 -2 18 -2 25 0 6 3 1 5 -13 5 -14 0 -19 -2 -12 -5z" style="fill: rgb(255, 203, 116);"/>
    <path d="M938 273 c6 -2 18 -2 25 0 6 3 1 5 -13 5 -14 0 -19 -2 -12 -5z" style="fill: rgb(255, 203, 116);"/>
    <path d="M1023 273 c9 -2 23 -2 30 0 6 3 -1 5 -18 5 -16 0 -22 -2 -12 -5z" style="fill: rgb(255, 203, 116);"/>
    <path d="M768 263 c6 -2 18 -2 25 0 6 3 1 5 -13 5 -14 0 -19 -2 -12 -5z" style="fill: rgb(255, 203, 116);"/>
    <path d="M1108 263 c6 -2 18 -2 25 0 6 3 1 5 -13 5 -14 0 -19 -2 -12 -5z" style="fill: rgb(255, 203, 116);"/>
    <path d="M688 233 c6 -2 18 -2 25 0 6 3 1 5 -13 5 -14 0 -19 -2 -12 -5z" style="fill: rgb(255, 203, 116);"/>
    <path d="M778 233 c7 -3 16 -2 19 1 4 3 -2 6 -13 5 -11 0 -14 -3 -6 -6z" style="fill: rgb(255, 203, 116);"/>
    <path d="M858 233 c7 -3 16 -2 19 1 4 3 -2 6 -13 5 -11 0 -14 -3 -6 -6z" style="fill: rgb(255, 203, 116);"/>
    <path d="M940 230 c0 -5 5 -10 10 -10 6 0 10 5 10 10 0 6 -4 10 -10 10 -5 0 -10 -4 -10 -10z" style="fill: rgb(255, 203, 116);"/>
    <path d="M1105 230 c-3 -5 3 -10 15 -10 12 0 18 5 15 10 -3 6 -10 10 -15 10 -5 0 -12 -4 -15 -10z" style="fill: rgb(255, 203, 116);"/>
    <path d="M1018 223 c6 -2 18 -2 25 0 6 3 1 5 -13 5 -14 0 -19 -2 -12 -5z" style="fill: rgb(255, 203, 116);"/>
    <path d="M1198 223 c6 -2 18 -2 25 0 6 3 1 5 -13 5 -14 0 -19 -2 -12 -5z" style="fill: rgb(255, 203, 116);"/>
    <path d="M768 193 c6 -2 18 -2 25 0 6 3 1 5 -13 5 -14 0 -19 -2 -12 -5z" style="fill: rgb(255, 203, 116);"/>
    <path d="M1105 190 c-3 -5 3 -10 15 -10 12 0 18 5 15 10 -3 6 -10 10 -15 10 -5 0 -12 -4 -15 -10z" style="fill: rgb(255, 203, 116);"/>
    <path d="M860 180 c0 -5 5 -10 10 -10 6 0 10 5 10 10 0 6 -4 10 -10 10 -5 0 -10 -4 -10 -10z" style="fill: rgb(255, 203, 116);"/>
    <path d="M938 183 c6 -2 18 -2 25 0 6 3 1 5 -13 5 -14 0 -19 -2 -12 -5z" style="fill: rgb(255, 203, 116);"/>
    <path d="M1020 180 c0 -5 7 -10 15 -10 8 0 15 5 15 10 0 6 -7 10 -15 10 -8 0 -15 -4 -15 -10z" style="fill: rgb(255, 203, 116);"/>
    <path d="M1763 1660 c-46 -28 -67 -65 -67 -120 0 -88 61 -144 152 -137 41 3 59 10 82 32 65 62 62 155 -5 214 -29 25 -44 31 -83 31 -29 0 -59 -8 -79 -20z m123 -16 c89 -43 85 -171 -7 -208 -33 -14 -48 -15 -75 -6 -112 37 -111 185 1 222 33 10 45 9 81 -8z" style="fill: rgb(255, 203, 116);"/>
    <path d="M1782 1538 c3 -74 20 -100 26 -40 2 17 7 32 11 32 4 0 23 -17 41 -37 36 -40 52 -31 24 12 -17 25 -17 28 -1 37 20 11 22 39 5 56 -7 7 -34 12 -60 12 l-49 0 3 -72z m86 30 c3 -14 -3 -18 -27 -18 -25 0 -31 4 -31 21 0 16 5 20 27 17 17 -2 29 -10 31 -20z" style="fill: rgb(255, 203, 116);"/>
  </g>
</svg>